# xmcd
#
# Track frame offsets: 
#        150
#        13946
#        27599
#        39173
#        48483
#        60012
#        70415
#        80626
#        93939
#        105151
#        115757
#        130144
#        141857
#        156055
#        170910
#        183840
#        195271
#        207207
#        216837
#        228887
#        242638
#        255444
#        266845
#        277547
#        288692
#        300506
#        316733
#        328995
#
# Disc length: 4547 seconds
#
# Revision: 0
# Processed by: cddbd v1.5.2PL0 Copyright (c) Steve Scherf et al.
# Submitted via: ExactAudioCopy v0.99pb4
#
DISCID=7f11c11c
DTITLE=Blind Willie McTell and Curley Weaver - Don't Forget It: The Post
DTITLE=War Years 1949-50
DYEAR=2008
DGENRE=Blues
TTITLE0=My Baby's Gone - 1
TTITLE1=Ticket Agent
TTITLE2=Some Rainy Day -1
TTITLE3=Trixie
TTITLE4=Don't Forget It
TTITLE5=A To Z Blues
TTITLE6=Good Little Thing
TTITLE7=You Can't Get Stuff No More
TTITLE8=Love Changin' Bues
TTITLE9=Savannah Mama
TTITLE10=Talkin' To You Mama
TTITLE11=East St. Louis
TTITLE12=Wee Midnight Hours
TTITLE13=Brownskin Woman Blues
TTITLE14=She Don't Treat Me Good No More
TTITLE15=I Keep On Drinking
TTITLE16=Pal Of Mine (take 1)
TTITLE17=Pal Of Mine (take 2)
TTITLE18=Honey It Must Be Love
TTITLE19=Sending Up My Timber (take 1)
TTITLE20=Sending Up My Timber (take 2)
TTITLE21=Lord Have Mercy If You Please
TTITLE22=Trying To Get Home (Climbing High Mountains)
TTITLE23=River Jordan
TTITLE24=How About You
TTITLE25=It's My Desire (take 1)
TTITLE26=It's My Desire (take 2)
TTITLE27=Hide Me In Thy Bosom
EXTD=
EXTT0=
EXTT1=
EXTT2=
EXTT3=
EXTT4=
EXTT5=
EXTT6=
EXTT7=
EXTT8=
EXTT9=
EXTT10=
EXTT11=
EXTT12=
EXTT13=
EXTT14=
EXTT15=
EXTT16=
EXTT17=
EXTT18=
EXTT19=
EXTT20=
EXTT21=
EXTT22=
EXTT23=
EXTT24=
EXTT25=
EXTT26=
EXTT27=
PLAYORDER=
